<svg width="38" height="16" viewBox="0 0 38 16" fill="none" xmlns="http://www.w3.org/2000/svg">
<path d="M6.96 0.799999C7.82667 0.799999 8.59333 0.926666 9.26 1.18C9.94 1.43333 10.58 1.81333 11.18 2.32L9.62 4.18C9.20667 3.86 8.8 3.62 8.4 3.46C8 3.3 7.57333 3.22 7.12 3.22C6.18667 3.22 5.44667 3.61333 4.9 4.4C4.36667 5.18667 4.1 6.4 4.1 8.04C4.1 9.65333 4.36667 10.8533 4.9 11.64C5.44667 12.4133 6.2 12.8 7.16 12.8C7.66667 12.8 8.12667 12.7067 8.54 12.52C8.95333 12.32 9.4 12.04 9.88 11.68L11.34 13.56C10.82 14.08 10.1867 14.5067 9.44 14.84C8.70667 15.1733 7.89333 15.34 7 15.34C5.72 15.34 4.60667 15.06 3.66 14.5C2.71333 13.94 1.97333 13.1133 1.44 12.02C0.92 10.9133 0.66 9.58667 0.66 8.04C0.66 6.53333 0.926667 5.23333 1.46 4.14C2.00667 3.04667 2.75333 2.22 3.7 1.66C4.66 1.08667 5.74667 0.799999 6.96 0.799999ZM18.0733 0.799999C18.9399 0.799999 19.7066 0.926666 20.3733 1.18C21.0533 1.43333 21.6933 1.81333 22.2933 2.32L20.7333 4.18C20.3199 3.86 19.9133 3.62 19.5133 3.46C19.1133 3.3 18.6866 3.22 18.2333 3.22C17.2999 3.22 16.5599 3.61333 16.0133 4.4C15.4799 5.18667 15.2133 6.4 15.2133 8.04C15.2133 9.65333 15.4799 10.8533 16.0133 11.64C16.5599 12.4133 17.3133 12.8 18.2733 12.8C18.7799 12.8 19.2399 12.7067 19.6533 12.52C20.0666 12.32 20.5133 12.04 20.9933 11.68L22.4533 13.56C21.9333 14.08 21.2999 14.5067 20.5533 14.84C19.8199 15.1733 19.0066 15.34 18.1133 15.34C16.8333 15.34 15.7199 15.06 14.7733 14.5C13.8266 13.94 13.0866 13.1133 12.5533 12.02C12.0333 10.9133 11.7733 9.58667 11.7733 8.04C11.7733 6.53333 12.0399 5.23333 12.5733 4.14C13.1199 3.04667 13.8666 2.22 14.8133 1.66C15.7733 1.08667 16.8599 0.799999 18.0733 0.799999ZM37.5795 15H34.3595L34.1195 9.58C34.0529 8.28667 34.0195 7.13333 34.0195 6.12C34.0195 5.34667 34.0395 4.61333 34.0795 3.92L31.9395 13.54H28.8395L26.5595 3.92C26.6395 5.08 26.6795 6.17333 26.6795 7.2C26.6795 7.97333 26.6595 8.78 26.6195 9.62L26.3795 15H23.1795L24.2195 1.14H28.3595L30.4395 10.54L32.3795 1.14H36.5395L37.5795 15Z" fill="black"/>
</svg>
